{"title":"Bad Meets Evil - Fast Lane ft. Eminem, Royce Da 59 1080p","uid":6463679,"size":177688906,"categoryP":"video","categoryS":"music_videos","magnet":"?xt=urn:btih:bffe72dd8c31550d74561ec4e714d25e4fbb39ff&amp;dn=Bad+Meets+Evil+-+Fast+Lane+ft.+Eminem%2C+Royce+Da+59+1080p&amp;tr=udp%3A%2F%2Ftracker.openbittorrent.com%3A80&amp;tr=udp%3A%2F%2Fopen.demonii.com%3A1337&amp;tr=udp%3A%2F%2Ftracker.coppersurfer.tk%3A6969&amp;tr=udp%3A%2F%2Fexodus.desync.com%3A6969","seeders":0,"leechers":0,"uploader":"ankygautam","files":2,"time":1307838333,"description":"General\nComplete name                    : Bad Meets Evil - Fast Lane ft. Eminem, Royce Da 59.mp4\nFormat                           : MPEG-4\nFormat profile                   : Base Media / Version 2\nCodec ID                         : mp42\nFile size                        : 169 MiB\nDuration                         : 4mn 9s\nOverall bit rate                 : 5 708 Kbps\n\nVideo\nID                               : 1\nFormat                           : AVC\nFormat/Info                      : Advanced Video Codec\nFormat profile                   : &lt;a class=&quot;__cf_email__&quot; href=&quot;/cdn-cgi/l/email-protection&quot; data-cfemail=&quot;cb83a2aca38b87ffe5fb&quot;&gt;[email&amp;#160;protected]&lt;/a&gt;&lt;script cf-hash='f9e31' type=&quot;text/javascript&quot;&gt;\n/* &lt;![CDATA[ */!function(){try{var t=&quot;currentScript&quot;in document?document.currentScript:function(){for(var t=document.getElementsByTagName(&quot;script&quot;),e=t.length;e--;)if(t[e].getAttribute(&quot;cf-hash&quot;))return t[e]}();if(t&amp;&amp;t.previousSibling){var e,r,n,i,c=t.previousSibling,a=c.getAttribute(&quot;data-cfemail&quot;);if(a){for(e=&quot;&quot;,r=parseInt(a.substr(0,2),16),n=2;a.length-n;n+=2)i=parseInt(a.substr(n,2),16)^r,e+=String.fromCharCode(i);e=document.createTextNode(e),c.parentNode.replaceChild(e,c)}}}catch(u){}}();/* ]]&gt; */&lt;/script&gt;\nFormat settings, CABAC           : Yes\nFormat settings, ReFrames        : 1 frame\nCodec ID                         : avc1\nCodec ID/Info                    : Advanced Video Coding\nDuration                         : 4mn 9s\nBit rate mode                    : Variable\nBit rate                         : 5 551 Kbps\nMaximum bit rate                 : 10.6 Mbps\nWidth                            : 1 920 pixels\nHeight                           : 1 080 pixels\nDisplay aspect ratio             : 16:9\nFrame rate mode                  : Variable\nFrame rate                       : 23.976 fps\nMinimum frame rate               : 17.241 fps\nMaximum frame rate               : 24.390 fps\nResolution                       : 24 bits\nColorimetry                      : 4:2:0\nScan type                        : Progressive\nBits/(Pixel*Frame)               : 0.112\nStream size                      : 165 MiB (97)\n\nAudio\nID                               : 2\nFormat                           : AAC\nFormat/Info                      : Advanced Audio Codec\nFormat version                   : Version 4\nFormat profile                   : LC\nFormat settings, SBR             : No\nCodec ID                         : 40\nDuration                         : 4mn 8s\nBit rate mode                    : Variable\nBit rate                         : 152 Kbps\nMaximum bit rate                 : 176 Kbps\nChannel(s)                       : 2 channels\nChannel positions                : L R\nSampling rate                    : 44.1 KHz\nResolution                       : 16 bits\nStream size                      : 4.51 MiB (3%)\n\n\n[img]http://img.sceper.eu/images/badmeetevi.png[/img]\n\n[img]http://img.sceper.eu/images/badmeeknk.png[/img]\n\n","torrent":{"xt":"urn:btih:bffe72dd8c31550d74561ec4e714d25e4fbb39ff","amp;dn":"Bad+Meets+Evil+-+Fast+Lane+ft.+Eminem%2C+Royce+Da+59+1080p","amp;tr":["udp%3A%2F%2Ftracker.openbittorrent.com%3A80","udp%3A%2F%2Fopen.demonii.com%3A1337","udp%3A%2F%2Ftracker.coppersurfer.tk%3A6969","udp%3A%2F%2Fexodus.desync.com%3A6969"],"infoHash":"bffe72dd8c31550d74561ec4e714d25e4fbb39ff","infoHashBuffer":{"type":"Buffer","data":[191,254,114,221,140,49,85,13,116,86,30,196,231,20,210,94,79,187,57,255]},"announce":[],"urlList":[]}}